<?xml version="1.0" encoding="iso-8859-1"?>
<!-- Generator: Adobe Illustrator 22.1.0, SVG Export Plug-In . SVG Version: 6.00 Build 0)  -->
<svg xmlns="http://www.w3.org/2000/svg" xmlns:xlink="http://www.w3.org/1999/xlink" version="1.1" id="Layer_1_1_" x="0px" y="0px" viewBox="0 0 64 64" style="enable-background:new 0 0 64 64;" xml:space="preserve" width="512" height="512">
<linearGradient id="SVGID_1_" gradientUnits="userSpaceOnUse" x1="32" y1="63" x2="32" y2="1">
	<stop offset="0" style="stop-color:#9F2FFF"/>
	<stop offset="1" style="stop-color:#0BB1D3"/>
</linearGradient>
<path style="fill:url(#SVGID_1_);" d="M58.116,13.98l2.121-3.442l-6.775-6.775L50.02,5.884c-0.734-0.365-1.501-0.681-2.293-0.946  L46.79,1h-9.58l-0.936,3.938c-0.792,0.265-1.56,0.582-2.293,0.946l-3.442-2.121l-1.753,1.753C27.096,4.547,25.165,4,23.169,4H22  C13.729,4,7,10.729,7,19v8c0,2.555,1.934,4.645,4.411,4.94c0.724,2.605,2.379,4.822,4.589,6.267v2.072L5.786,43.684  C2.923,44.638,1,47.307,1,50.325V63h42V50.325c0-3.018-1.923-5.687-4.786-6.641L28,40.279v-2.072  c0.102-0.067,0.203-0.136,0.303-0.206l2.235,2.235l3.442-2.121c0.733,0.365,1.501,0.681,2.293,0.946L37.21,43h9.58l0.936-3.938  c0.792-0.265,1.56-0.582,2.293-0.946l3.442,2.121l6.775-6.775l-2.121-3.442c0.365-0.734,0.681-1.501,0.946-2.293L63,26.79v-9.58  l-3.938-0.936C58.797,15.482,58.48,14.714,58.116,13.98z M9,27c0-1.302,0.839-2.402,2-2.816V29c0,0.28,0.021,0.554,0.042,0.829  C9.859,29.427,9,28.317,9,27z M11.13,22.088c-0.793,0.14-1.513,0.47-2.13,0.938V19c0-7.168,5.832-13,13-13h1.169  c3.248,0,6.303,1.73,7.974,4.515l0.15,0.25l0.26,0.13c2.126,1.063,3.447,3.2,3.447,5.578v6.553c-0.617-0.467-1.338-0.797-2.13-0.938  C32.273,19.188,29.701,17,26.627,17c-1.263,0-2.485,0.37-3.535,1.07L22,18.798l-1.092-0.728c-1.05-0.7-2.272-1.07-3.535-1.07  C14.299,17,11.727,19.188,11.13,22.088z M33,29v-4.816c1.161,0.414,2,1.514,2,2.816c0,1.317-0.859,2.427-2.042,2.829  C32.979,29.554,33,29.28,33,29z M37,27V16.472c0-1.689-0.52-3.276-1.423-4.61C37.494,10.641,39.695,10,42,10c6.617,0,12,5.383,12,12  s-5.383,12-12,12c-2.789,0-5.412-0.946-7.539-2.674C35.969,30.464,37,28.858,37,27z M13,29v-5.627C13,20.962,14.962,19,17.373,19  c0.867,0,1.705,0.254,2.426,0.734L22,21.202l2.201-1.467C24.922,19.254,25.76,19,26.627,19C29.038,19,31,20.962,31,23.373V29  c0,4.962-4.038,9-9,9S13,33.962,13,29z M16.8,42.121l3.703,2.962l-5.066,5.066l-2.272-6.817L16.8,42.121z M22,46.414l3,3V61h-6  V49.414L22,46.414z M3,50.325c0-2.156,1.374-4.062,3.419-4.744l4.849-1.616l3.296,9.886L17,51.414V61h-7v-8H8v8H3V50.325z   M41,50.325V61h-5v-8h-2v8h-7v-9.586l2.437,2.437l3.296-9.886l4.849,1.616C39.626,46.263,41,48.169,41,50.325z M30.835,43.332  l-2.272,6.817l-5.066-5.066l3.703-2.962L30.835,43.332z M26,40.52l-4,3.2l-4-3.2v-1.284C19.242,39.723,20.588,40,22,40  s2.758-0.277,4-0.764V40.52z M61,25.21l-3.513,0.835l-0.166,0.552c-0.314,1.049-0.729,2.056-1.234,2.991l-0.274,0.508l1.891,3.069  l-4.54,4.54l-3.069-1.891l-0.508,0.274c-0.934,0.504-1.94,0.919-2.99,1.234l-0.552,0.166L45.21,41h-6.42l-0.835-3.513l-0.552-0.166  c-1.05-0.315-2.057-0.73-2.99-1.234l-0.508-0.274l-3.069,1.891l-0.998-0.998c1.214-1.234,2.142-2.749,2.669-4.441  C35.098,34.67,38.431,36,42,36c7.72,0,14-6.28,14-14S49.72,8,42,8c-2.792,0-5.45,0.814-7.747,2.347  c-0.469-0.418-0.979-0.797-1.547-1.106c-0.62-0.976-1.396-1.823-2.264-2.553l0.393-0.393l3.069,1.892l0.508-0.274  c0.935-0.504,1.941-0.919,2.991-1.234l0.552-0.166L38.79,3h6.42l0.835,3.513l0.552,0.166c1.049,0.314,2.056,0.729,2.991,1.234  l0.508,0.274l3.069-1.891l4.54,4.54l-1.891,3.069l0.274,0.508c0.504,0.935,0.919,1.941,1.234,2.991l0.166,0.552L61,18.79V25.21z   M26,25c0-0.552,0.448-1,1-1s1,0.448,1,1c0,0.552-0.448,1-1,1S26,25.552,26,25z M18,25c0,0.552-0.448,1-1,1s-1-0.448-1-1  c0-0.552,0.448-1,1-1S18,24.448,18,25z M22,35c-2.206,0-4-1.794-4-4h2c0,1.103,0.897,2,2,2s2-0.897,2-2h2C26,33.206,24.206,35,22,35  z M23,51h-2v-2h2V51z M23,55h-2v-2h2V55z M21,59v-2h2v2H21z M47,15h-8v-2h8V15z M50,19H39v-2h11V19z M52,23H39v-2h13V23z M50,27H39  v-2h11V27z M47,31h-8v-2h8V31z"/>
</svg>
