<svg height="496pt" viewBox="0 0 496 496.432" width="496pt" xmlns="http://www.w3.org/2000/svg" xmlns:xlink="http://www.w3.org/1999/xlink"><linearGradient id="a" gradientUnits="userSpaceOnUse" x1="248.216" x2="248.216" y1="496.4336" y2="0"><stop offset="0" stop-color="#9f2fff"/><stop offset="1" stop-color="#0bb1d3"/></linearGradient><path d="m344.214844 192h128c13.234375 0 24-10.769531 24-24s-10.765625-24-24-24h-72.808594c-3.71875-18.230469-19.871094-32-39.191406-32h-40v-22.136719l-22.519532-6.039062c-.894531-2.382813-1.886718-4.769531-2.992187-7.136719l11.671875-20.230469-42.621094-42.625-20.234375 11.671875c-2.367187-1.097656-4.75-2.097656-7.136719-2.992187l-6.03125-22.511719h-60.273437l-6.039063 22.519531c-2.382812.894531-4.765624 1.886719-7.136718 2.992188l-20.230469-11.671875-42.625 42.625 11.671875 20.230468c-1.09375 2.367188-2.09375 4.753907-2.992188 7.136719l-22.511718 6.03125v22.136719h-40c-22.054688 0-40 17.945312-40 40v208c0 22.054688 17.945312 40 40 40h80v32h-32v16h224v-16h-32v-32h56.695312c4.601563 43.839844 34.242188 81.414062 76.769532 95.59375l2.535156.839844 2.527344-.839844c46.335937-15.449219 77.472656-58.640625 77.472656-107.488281v-34.167969c0-24.027344-9.351563-46.609375-26.34375-63.601562l-2.34375-2.335938h-19.3125c0-14.863281-10.238282-27.289062-24-30.863281v-25.136719c0-13.230469-10.765625-24-24-24h-56c-4.40625 0-8-3.59375-8-8s3.59375-8 8-8zm-248-89.863281 18.953125-5.082031 1.335937-4.132813c1.382813-4.289063 3.199219-8.625 5.390625-12.90625l1.984375-3.871094-9.839844-17.046875 25.265626-25.265625 17.046874 9.839844 3.871094-1.984375c4.28125-2.191406 8.617188-4.007812 12.90625-5.390625l4.136719-1.335937 5.085937-18.960938h35.726563l5.082031 18.953125 4.136719 1.335937c4.289063 1.382813 8.625 3.199219 12.902344 5.390626l3.871093 1.984374 17.050782-9.839843 25.261718 25.265625-9.839843 17.046875 1.984375 3.871093c2.191406 4.28125 4.007812 8.617188 5.394531 12.902344l1.335937 4.136719 18.957032 5.089844v35.726562l-18.949219 5.082031-1.335937 4.132813c-1.386719 4.289063-3.203126 8.625-5.394532 12.90625l-1.984375 3.871094 9.839844 17.046875-25.261719 25.265625-17.050781-9.839844-3.871094 1.984375c-4.277343 2.191406-8.613281 4.007812-12.902343 5.390625l-4.136719 1.335937-5.089844 18.960938h-35.726563l-5.078124-18.953125-4.136719-1.335937c-4.289063-1.382813-8.625-3.199219-12.90625-5.390626l-3.871094-1.984374-17.046875 9.839843-25.265625-25.265625 9.839844-17.046875-1.984375-3.871093c-2.191406-4.28125-4.007813-8.617188-5.390625-12.902344l-1.335938-4.136719-18.960937-5.089844zm-80 257.863281v-24h321.792968c-1.175781 5.839844-1.792968 11.847656-1.792968 17.945312v30.054688h-296c-13.230469 0-24-10.769531-24-24zm392-56v25.472656c-9.285156 3.3125-16 12.113282-16 22.527344h-39.910156c.464843-17.9375 7.214843-34.808594 19.320312-48zm32 64h40v20.105469c0 10.140625-1.574219 20.007812-4.511719 29.320312-4.367187-.929687-8.984375-1.425781-14.167969-1.425781-16.710937 0-25.457031 4.769531-33.167968 8.976562-6.910157 3.765626-12.878907 7.023438-25.511719 7.023438-12.617188 0-18.582031-3.257812-25.488281-7.023438-5.472657-2.984374-11.597657-6.296874-20.742188-7.929687-2.863281-9.199219-4.410156-18.925781-4.410156-28.941406v-20.105469h40c0 13.230469 10.769531 24 24 24 13.234375 0 24-10.769531 24-24zm-24-24c4.410156 0 8 3.59375 8 8v16c0 4.40625-3.589844 8-8 8-4.40625 0-8-3.59375-8-8v-16c0-4.40625 3.59375-8 8-8zm-152 88h-128v-32h128zm152 47.527344c-22.03125-8.015625-39.824219-23.449219-51.007813-42.878906 1.496094.742187 2.976563 1.542968 4.496094 2.375 7.710937 4.207031 16.457031 8.976562 33.152344 8.976562 16.710937 0 25.457031-4.769531 33.167969-8.976562 6.914062-3.765626 12.878906-7.023438 25.511718-7.023438 2.871094 0 5.441406.222656 7.90625.574219-10.96875 21.347656-29.671875 38.386719-53.226562 46.953125zm44.59375-175.527344c12.101562 13.191406 18.855468 30.0625 19.320312 48h-39.914062c0-10.414062-6.710938-19.214844-16-22.527344v-25.472656zm-28.59375-16h-32c0-8.824219 7.175781-16 16-16 8.824218 0 16 7.175781 16 16zm-88-64h56c4.410156 0 8 3.59375 8 8v25.136719c-13.757813 3.574219-24 16-24 30.863281h-19.3125l-2.34375 2.34375c-8.621094 8.625-15.253906 18.695312-19.71875 29.65625h-326.625v-168c0-13.230469 10.769531-24 24-24h40v22.136719l22.519531 6.039062c.898437 2.382813 1.890625 4.769531 2.992187 7.136719l-11.671874 20.230469 42.625 42.625 20.230468-11.671875c2.371094 1.097656 4.753906 2.097656 7.136719 2.992187l6.03125 22.511719h60.273437l6.039063-22.519531c2.386719-.894531 4.769531-1.886719 7.136719-2.992188l20.234375 11.671875 42.621093-42.625-11.671874-20.230468c1.097656-2.367188 2.097656-4.753907 2.992187-7.136719l22.511719-6.03125v-22.136719h40c10.417968 0 19.21875 6.710938 22.527344 16h-38.527344v16h128c4.410156 0 8 3.59375 8 8s-3.589844 8-8 8h-128c-13.230469 0-24 10.769531-24 24s10.769531 24 24 24zm-144-32c39.695312 0 72-32.304688 72-72s-32.304688-72-72-72c-39.695313 0-72 32.304688-72 72s32.304687 72 72 72zm0-128c30.882812 0 56 25.121094 56 56s-25.117188 56-56 56c-30.878906 0-56-25.121094-56-56s25.121094-56 56-56zm0 96c22.058594 0 40-17.945312 40-40s-17.941406-40-40-40c-22.054688 0-40 17.945312-40 40s17.945312 40 40 40zm0-64c13.234375 0 24 10.769531 24 24s-10.765625 24-24 24c-13.230469 0-24-10.769531-24-24s10.769531-24 24-24zm-136 256h16v16h-16zm48 0v16h-16v-16zm-80 0h16v16h-16zm0 0" fill="url(#a)"/></svg>