<svg height="496pt" viewBox="0 0 496 496" width="496pt" xmlns="http://www.w3.org/2000/svg" xmlns:xlink="http://www.w3.org/1999/xlink"><linearGradient id="a" gradientUnits="userSpaceOnUse" x1="248" x2="248" y1="496" y2="0"><stop offset="0" stop-color="#9f2fff"/><stop offset="1" stop-color="#0bb1d3"/></linearGradient><path d="m40 496h416c22.054688 0 40-17.945312 40-40v-40h-16v-264c0-22.054688-17.945312-40-40-40h-42.359375l3-16h47.359375c13.230469 0 24-10.769531 24-24s-10.769531-24-24-24h-54.640625l-24 128h-26.96875l6.167969-6.167969-12.183594-20.535156c.167969-.394531.328125-.785156.488281-1.167969l23.136719-5.914062v-60.429688l-23.136719-5.90625c-.160156-.390625-.328125-.78125-.488281-1.167968l12.183594-20.535157-42.726563-42.734375-20.535156 12.183594c-.394531-.167969-.785156-.328125-1.167969-.488281l-5.914062-23.136719h-60.429688l-5.90625 23.136719c-.390625.160156-.78125.328125-1.167968.488281l-20.542969-12.183594-42.726563 42.726563 12.183594 20.535156c-.167969.394531-.328125.785156-.488281 1.167969l-23.136719 5.914062v30.214844h-80c-22.054688 0-40 17.945312-40 40v264h-16v40c0 22.054688 17.945312 40 40 40zm366.640625-432h41.359375c4.40625 0 8 3.59375 8 8s-3.59375 8-8 8h-44.359375zm33.359375 64c13.230469 0 24 10.769531 24 24v264h-16v-256c0-8.824219-7.175781-16-16-16h-40.359375l3-16zm-264 304h144v8c0 4.40625-3.59375 8-8 8h-128c-4.40625 0-8-3.59375-8-8zm-112-16v-256h89.273438l-5.832032 9.832031 6.167969 6.167969h-34.671875l13.621094 108.960938c2.496094 19.976562 19.5625 35.039062 39.6875 35.039062h179.753906c4.40625 0 8 3.59375 8 8s-3.59375 8-8 8h-200c-17.648438 0-32 14.351562-32 32s14.351562 32 32 32 32-14.351562 32-32c0-5.855469-1.695312-11.273438-4.449219-16h112.90625c-2.761719 4.726562-4.457031 10.144531-4.457031 16 0 17.648438 14.351562 32 32 32s32-14.351562 32-32c0-5.855469-1.695312-11.273438-4.449219-16h4.449219c13.230469 0 24-10.769531 24-24 0-9.945312-6.078125-18.488281-14.710938-22.128906l27.351563-145.871094h43.359375v256zm272-48c0 8.824219-7.175781 16-16 16s-16-7.175781-16-16 7.175781-16 16-16 16 7.175781 16 16zm-168 0c0 8.824219-7.175781 16-16 16s-16-7.175781-16-16 7.175781-16 16-16 16 7.175781 16 16zm198.359375-176-21 112h-173.113281c-12.078125 0-22.316406-9.039062-23.8125-21.023438l-11.371094-90.976562h32.546875l20.558594 20.558594 20.535156-12.183594c.394531.167969.785156.328125 1.167969.488281l5.914062 23.136719h60.429688l5.90625-23.136719c.390625-.160156.78125-.328125 1.167968-.488281l20.535157 12.183594 20.558593-20.558594zm-214.359375-97.785156 19.257812-4.910156 1.421876-4.023438c.921874-2.617188 1.984374-5.152344 3.167968-7.632812l1.839844-3.855469-10.144531-17.105469 25.152343-25.152344 17.105469 10.144532 3.855469-1.839844c2.480469-1.183594 5.015625-2.238282 7.632812-3.167969l4.023438-1.425781 4.902344-19.246094h35.570312l4.910156 19.257812 4.023438 1.421876c2.617188.921874 5.152344 1.984374 7.632812 3.167968l3.855469 1.839844 17.105469-10.144531 25.152344 25.152343-10.144532 17.105469 1.839844 3.855469c1.183594 2.480469 2.238282 5.015625 3.167969 7.632812l1.425781 4.023438 19.246094 4.902344v35.570312l-19.246094 4.910156-1.433594 4.015626c-.929687 2.617187-1.984374 5.160156-3.167968 7.640624l-1.839844 3.855469 10.144531 17.105469-25.152343 25.152344-17.105469-10.144532-3.855469 1.839844c-2.480469 1.183594-5.015625 2.238282-7.632812 3.167969l-4.023438 1.425781-4.902344 19.246094h-35.570312l-4.910156-19.257812-4.023438-1.421876c-2.617188-.921874-5.152344-1.984374-7.632812-3.167968l-3.855469-1.839844-17.105469 10.144531-25.152344-25.152343 10.144532-17.105469-1.839844-3.855469c-1.183594-2.480469-2.238282-5.015625-3.167969-7.640625l-1.433594-4.015625-19.238281-4.902344zm-120 57.785156c0-13.230469 10.769531-24 24-24h80v14.214844l6.992188 1.785156h-78.992188c-8.824219 0-16 7.175781-16 16v256h-16zm-16 280h144v8c0 13.230469 10.769531 24 24 24h128c13.230469 0 24-10.769531 24-24v-8h144v24c0 13.230469-10.769531 24-24 24h-416c-13.230469 0-24-10.769531-24-24zm48 32h-16v-16h16zm32 0h-16v-16h16zm32 0h-16v-16h16zm120-288c35.289062 0 64-28.710938 64-64s-28.710938-64-64-64-64 28.710938-64 64 28.710938 64 64 64zm0-112c26.472656 0 48 21.527344 48 48s-21.527344 48-48 48-48-21.527344-48-48 21.527344-48 48-48zm0 80c17.648438 0 32-14.351562 32-32s-14.351562-32-32-32-32 14.351562-32 32 14.351562 32 32 32zm0-48c8.824219 0 16 7.175781 16 16s-7.175781 16-16 16-16-7.175781-16-16 7.175781-16 16-16zm0 0" fill="url(#a)"/></svg>