<?xml version="1.0" encoding="UTF-8"?>
<!DOCTYPE svg PUBLIC "-//W3C//DTD SVG 1.1//EN" "http://www.w3.org/Graphics/SVG/1.1/DTD/svg11.dtd">
<!-- Creator: CorelDRAW X7 -->
<svg xmlns="http://www.w3.org/2000/svg" xml:space="preserve" width="267.152mm" height="127.621mm" version="1.1" style="shape-rendering:geometricPrecision; text-rendering:geometricPrecision; image-rendering:optimizeQuality; fill-rule:evenodd; clip-rule:evenodd"
viewBox="0 0 2672 1276"
 xmlns:xlink="http://www.w3.org/1999/xlink">
 <defs>
  <style type="text/css">
   <![CDATA[
    .fil0 {fill:none}
    .fil1 {fill:#373435;fill-rule:nonzero}
   ]]>
  </style>
 </defs>
 <g id="Слой_x0020_1">
  <metadata id="CorelCorpID_0Corel-Layer"/>
  <rect class="fil0" width="2672" height="1276"/>
  <g id="_2372295647552">
   <path class="fil1" d="M546 245l0 287c0,47 -40,75 -74,75 -24,0 -62,-19 -73,-55l-59 32c19,51 67,89 132,89 85,0 140,-66 140,-141l0 -287 -66 0z"/>
   <path id="1" class="fil1" d="M885 245l-215 428 428 0 -213 -428zm0 146l108 216 -217 0 109 -216z"/>
   <path id="2" class="fil1" d="M1472 558c-26,25 -61,41 -100,41 -77,0 -141,-63 -141,-140 0,-78 64,-141 141,-141 39,0 74,16 100,42l52 -52c-39,-39 -93,-63 -152,-63 -118,0 -214,95 -214,214 0,118 96,214 214,214 59,0 112,-24 152,-63l-52 -52zm-66 -99c0,19 -16,34 -34,34 -19,0 -35,-15 -35,-34 0,-19 16,-34 35,-34 18,0 34,15 34,34z"/>
   <path id="3" class="fil1" d="M1667 550l80 -107 0 0 145 -198 -89 0 -148 199 0 -199 -72 0 0 428 72 0 0 -107 12 -16 0 0zm90 -93l-45 61 115 155 89 0 -159 -216z"/>
   <path id="4" class="fil1" d="M2282 450c-30,-18 -73,-27 -129,-27 -79,0 -107,-21 -107,-36 0,-14 19,-71 107,-71 86,0 105,53 106,70l71 -14c-9,-57 -65,-127 -177,-127 -123,0 -179,83 -179,142 0,25 13,107 179,107 73,0 106,19 106,36 0,15 -18,72 -106,72 -86,0 -105,-54 -107,-71l-70 14c8,58 64,128 177,128 122,0 178,-84 178,-143 0,-33 -18,-61 -49,-80z"/>
   <path class="fil1" d="M397 944l-6 -3c-19,-8 -27,-8 -27,-22 0,-6 2,-15 25,-15 23,0 25,5 25,12l26 -8c-3,-20 -20,-30 -51,-30 -34,0 -51,16 -51,41 0,33 26,40 43,47l6 2c19,8 27,9 27,22 0,7 -2,15 -25,15 -23,0 -25,-5 -25,-12l-25 8c3,20 20,31 50,31 34,0 52,-16 52,-42 0,-32 -27,-39 -44,-46z"/>
   <polygon id="1" class="fil1" points="782,851 761,851 761,806 734,806 734,851 713,851 713,878 734,878 734,1032 761,1032 761,878 782,878 "/>
   <path id="2" class="fil1" d="M1181 878l-27 0 0 83c0,21 -15,44 -36,44 -21,0 -37,-22 -37,-42l0 -85 -26 0 0 85c0,32 26,69 63,69 38,0 63,-37 63,-71l0 -83z"/>
   <path id="3" class="fil1" d="M1581 806l0 91c-13,-12 -31,-19 -50,-19 -43,0 -77,34 -77,77 0,42 34,77 77,77 19,0 37,-8 50,-19l0 19 26 0 0 -226 -26 0zm-50 199c-28,0 -51,-22 -51,-50 0,-28 23,-51 51,-51 28,0 50,23 50,51 0,28 -22,50 -50,50z"/>
   <path id="4" class="fil1" d="M1880 1032l27 0 0 -154 -27 0 0 154zm26 -178c0,-7 -5,-13 -12,-13 -7,0 -13,6 -13,13 0,7 6,13 13,13 7,0 12,-6 12,-13z"/>
   <path id="5" class="fil1" d="M2257 878c-43,0 -77,34 -77,77 0,42 34,77 77,77 42,0 77,-35 77,-77 0,-43 -35,-77 -77,-77zm50 77c0,28 -22,50 -50,50 -28,0 -51,-22 -51,-50 0,-28 23,-51 51,-51 28,0 50,23 50,51z"/>
  </g>
 </g>
</svg>
